# Blender v2.76 (sub 0) OBJ File: 'ldWallWithDoor.blend'
# www.blender.org
mtllib ldWallWithDoor.mtl
o Cube
v -7.500000 0.000000 -0.250000
v 7.500000 0.000000 -0.250001
v 7.500000 0.000000 0.250000
v -7.500000 0.000000 0.250000
v -7.500000 4.000000 -0.250001
v 7.500001 4.000000 -0.250000
v 7.500000 4.000000 0.250000
v -7.500000 4.000000 0.250000
v -7.500000 2.760662 -0.250000
v 7.500000 2.760662 -0.250000
v 0.000000 4.000000 -0.250000
v 0.000000 3.511810 -0.250000
v 2.020130 0.000000 -0.250000
v -7.500000 3.385662 -0.250000
v 7.500001 3.385662 -0.250000
v 1.250000 4.000000 -0.250000
v -2.001404 0.000000 -0.250000
v -7.500000 2.135662 -0.250000
v 7.500000 2.135662 -0.250001
v -1.250000 4.000000 -0.250001
v 2.020131 2.760662 -0.250000
v -2.001403 2.760662 -0.250000
v 0.000000 3.846694 -0.250000
v -1.250000 3.385662 -0.250000
v -2.001404 2.135662 -0.250000
v 2.020130 2.135662 -0.250000
v 1.250000 3.385662 -0.250000
v 7.500000 2.760662 0.250000
v -7.500000 2.760662 0.250000
v -0.000000 4.000000 0.250000
v -0.000000 3.511810 0.250000
v -2.001404 0.000000 0.250000
v 7.500000 3.385662 0.250000
v -7.500000 3.385662 0.250000
v -1.250000 4.000000 0.250000
v 1.250000 4.000000 0.250000
v -7.500000 2.135662 0.250000
v 7.500000 2.135662 0.250000
v 2.020130 0.000000 0.250000
v -2.001404 2.760662 0.250000
v 2.020130 2.760662 0.250000
v -0.000000 3.846694 0.250000
v 2.020130 2.135662 0.250000
v 1.250000 3.385662 0.250000
v -2.001404 2.135662 0.250000
v -1.250000 3.385662 0.250000
v -0.820349 3.341455 -0.249997
v 0.892309 3.336251 -0.249997
v 0.892308 3.326473 0.250000
v -0.820350 3.341455 0.250000
vn 0.000000 -1.000000 0.000000
vn -0.000000 -0.000000 -1.000000
vn 1.000000 -0.000000 0.000000
vn 0.000000 0.000000 1.000000
vn -1.000000 0.000000 -0.000000
vn -0.451500 -0.892200 -0.008700
vn 0.203300 -0.979100 0.000000
vn 0.441300 -0.897400 0.000000
vn -0.198200 -0.980100 -0.009600
vn 0.000000 1.000000 0.000000
usemtl Material
s off
f 13//1 2//1 3//1 39//1
f 48//2 27//2 21//2
f 27//2 16//2 6//2 15//2
f 2//3 19//3 10//3 15//3 6//3 7//3 33//3 28//3 38//3 3//3
f 46//4 35//4 8//4 34//4
f 5//5 14//5 9//5 18//5 1//5 4//5 37//5 29//5 34//5 8//5
f 26//2 21//2 10//2 19//2
f 45//4 40//4 29//4 37//4
f 24//2 20//2 11//2 23//2
f 27//2 48//2 23//2
f 9//2 14//2 24//2 22//2
f 14//2 5//2 20//2 24//2
f 44//4 36//4 30//4 42//4
f 1//2 18//2 25//2 17//2
f 18//2 9//2 22//2 25//2
f 13//2 26//2 19//2 2//2
f 21//2 27//2 15//2 10//2
f 12//2 23//2 48//2
f 23//2 11//2 16//2 27//2
f 3//4 38//4 43//4 39//4
f 38//4 28//4 41//4 43//4
f 28//4 33//4 44//4 41//4
f 33//4 7//4 36//4 44//4
f 32//4 45//4 37//4 4//4
f 40//4 46//4 34//4 29//4
f 42//4 30//4 35//4 46//4
f 26//5 43//5 41//5 21//5
f 13//5 39//5 43//5 26//5
f 48//6 21//6 41//6 49//6
f 47//7 12//7 31//7 50//7
f 25//3 22//3 40//3 45//3
f 17//3 25//3 45//3 32//3
f 22//8 47//8 50//8 40//8
f 12//9 48//9 49//9 31//9
f 4//1 1//1 17//1 32//1
f 47//2 23//2 12//2
f 23//2 47//2 24//2
f 47//2 22//2 24//2
f 49//4 42//4 31//4
f 31//4 42//4 50//4
f 50//4 42//4 46//4
f 50//4 46//4 40//4
f 42//4 49//4 44//4
f 49//4 41//4 44//4
f 16//10 36//10 7//10 6//10
f 36//10 16//10 11//10 30//10
f 30//10 11//10 20//10 35//10
f 35//10 20//10 5//10 8//10
